<svg width="238" height="16" viewBox="0 0 238 16" fill="none" xmlns="http://www.w3.org/2000/svg">
<path fill-rule="evenodd" clip-rule="evenodd" d="M237.733 11.3625C237.833 10.8927 237.953 10.3775 237.82 9.87733C238.101 9.0438 238.027 8.46791 237.78 7.695C237.679 7.66469 237.586 7.67985 237.499 7.71016L237.492 7.695C237.392 7.66469 237.298 7.67985 237.211 7.71016L237.205 7.695C237.104 7.66469 237.011 7.67985 236.924 7.71016L236.917 7.695C236.897 7.695 236.877 7.695 236.857 7.67984C236.917 7.42221 236.971 7.13426 237.044 6.90694C237.064 7.02818 237.098 7.1191 237.151 7.16457C237.191 6.98271 237.251 6.84631 237.312 6.70991C237.318 6.93724 237.358 7.08879 237.439 7.16457C237.572 6.57352 237.92 6.36135 237.867 5.60359C237.82 4.99739 237.399 4.33057 237.017 4.52759C236.924 4.48212 236.824 4.48212 236.73 4.52759C236.65 4.48212 236.563 4.48211 236.483 4.51242C236.536 3.61827 236.436 2.64835 236.202 2.04214C236.382 2.04214 236.202 1.72389 236.329 1.64812C236.142 1.40563 236.302 0.844897 236.168 0.541795C236.021 0.466019 235.961 0.223538 235.881 0.0113663C235.794 -0.00378878 235.72 -0.00378878 235.647 0.0113663C235.573 -0.00378878 235.5 -0.00378878 235.433 0.0113663C235.359 -0.00378878 235.286 -0.00378878 235.219 0.0113663C235.146 -0.00378878 235.072 -0.00378878 235.005 0.0113663C234.932 -0.00378878 234.858 -0.00378878 234.791 0.0113663C234.718 -0.00378878 234.644 -0.00378878 234.577 0.0113663C234.504 -0.00378878 234.43 -0.00378878 234.363 0.0113663C234.29 -0.00378878 234.216 -0.00378878 234.149 0.0113663C234.076 -0.00378878 234.002 -0.00378878 233.935 0.0113663C233.862 -0.00378878 233.788 -0.00378878 233.721 0.0113663C233.648 -0.00378878 233.574 -0.00378878 233.508 0.0113663C233.434 -0.00378878 233.36 -0.00378878 233.294 0.0113663C233.22 -0.00378878 233.147 -0.00378878 233.08 0.0113663C233.006 -0.00378878 232.933 -0.00378878 232.866 0.0113663C232.792 -0.00378878 232.719 -0.00378878 232.652 0.0113663C232.578 -0.00378878 232.505 -0.00378878 232.438 0.0113663C232.364 -0.00378878 232.291 -0.00378878 232.224 0.0113663C232.15 -0.00378878 232.077 -0.00378878 232.01 0.0113663C231.936 -0.00378878 231.863 -0.00378878 231.796 0.0113663C231.722 -0.00378878 231.649 -0.00378878 231.582 0.0113663C231.509 -0.00378878 231.435 -0.00378878 231.368 0.0113663C231.295 -0.00378878 231.221 -0.00378878 231.154 0.0113663C231.081 -0.00378878 231.007 -0.00378878 230.94 0.0113663C230.867 -0.00378878 230.793 -0.00378878 230.726 0.0113663C230.653 -0.00378878 230.579 -0.00378878 230.512 0.0113663C230.439 -0.00378878 230.365 -0.00378878 230.298 0.0113663C230.225 -0.00378878 230.151 -0.00378878 230.085 0.0113663C230.011 -0.00378878 229.937 -0.00378878 229.871 0.0113663C229.797 -0.00378878 229.723 -0.00378878 229.657 0.0113663C229.583 -0.00378878 229.51 -0.00378878 229.443 0.0113663C229.369 -0.00378878 229.296 -0.00378878 229.229 0.0113663C229.155 -0.00378878 229.082 -0.00378878 229.015 0.0113663C228.941 -0.00378878 228.868 -0.00378878 228.801 0.0113663C228.727 -0.00378878 228.654 -0.00378878 228.587 0.0113663C228.513 -0.00378878 228.44 -0.00378878 228.373 0.0113663C228.299 -0.00378878 228.226 -0.00378878 228.159 0.0113663C228.086 -0.00378878 228.012 -0.00378878 227.945 0.0113663C227.872 -0.00378878 227.798 -0.00378878 227.731 0.0113663C227.658 -0.00378878 227.584 -0.00378878 227.517 0.0113663C227.444 -0.00378878 227.37 -0.00378878 227.303 0.0113663C227.23 -0.00378878 227.156 -0.00378878 227.089 0.0113663C227.016 -0.00378878 226.942 -0.00378878 226.875 0.0113663C226.802 -0.00378878 226.728 -0.00378878 226.662 0.0113663C226.588 -0.00378878 226.514 -0.00378878 226.448 0.0113663C226.374 -0.00378878 226.301 -0.00378878 226.234 0.0113663C226.16 -0.00378878 226.087 -0.00378878 226.02 0.0113663C225.946 -0.00378878 225.873 -0.00378878 225.806 0.0113663C225.732 -0.00378878 225.659 -0.00378878 225.592 0.0113663C225.518 -0.00378878 225.445 -0.00378878 225.378 0.0113663C225.304 -0.00378878 225.231 -0.00378878 225.164 0.0113663C225.09 -0.00378878 225.017 -0.00378878 224.95 0.0113663C224.876 -0.00378878 224.803 -0.00378878 224.736 0.0113663C224.663 -0.00378878 224.589 -0.00378878 224.522 0.0113663C224.449 -0.00378878 224.375 -0.00378878 224.308 0.0113663C224.235 -0.00378878 224.161 -0.00378878 224.094 0.0113663C224.021 -0.00378878 223.947 -0.00378878 223.88 0.0113663C223.807 -0.00378878 223.733 -0.00378878 223.666 0.0113663C223.593 -0.00378878 223.519 -0.00378878 223.452 0.0113663C223.379 -0.00378878 223.305 -0.00378878 223.239 0.0113663C223.165 -0.00378878 223.091 -0.00378878 223.025 0.0113663C222.951 -0.00378878 222.877 -0.00378878 222.811 0.0113663C222.737 -0.00378878 222.664 -0.00378878 222.597 0.0113663C222.523 -0.00378878 222.45 -0.00378878 222.383 0.0113663C222.309 -0.00378878 222.236 -0.00378878 222.169 0.0113663C222.095 -0.00378878 222.022 -0.00378878 221.955 0.0113663C221.881 -0.00378878 221.808 -0.00378878 221.741 0.0113663C221.667 -0.00378878 221.594 -0.00378878 221.527 0.0113663C221.453 -0.00378878 221.38 -0.00378878 221.313 0.0113663C221.24 -0.00378878 221.166 -0.00378878 221.099 0.0113663C221.026 -0.00378878 220.952 -0.00378878 220.885 0.0113663C220.812 -0.00378878 220.738 -0.00378878 220.671 0.0113663C220.598 -0.00378878 220.524 -0.00378878 220.457 0.0113663C220.384 -0.00378878 220.31 -0.00378878 220.243 0.0113663C220.17 -0.00378878 220.096 -0.00378878 220.029 0.0113663C219.956 -0.00378878 219.882 -0.00378878 219.815 0.0113663C219.742 -0.00378878 219.668 -0.00378878 219.602 0.0113663C219.528 -0.00378878 219.454 -0.00378878 219.388 0.0113663C219.314 -0.00378878 219.241 -0.00378878 219.174 0.0113663C219.1 -0.00378878 219.027 -0.00378878 218.96 0.0113663C218.886 -0.00378878 218.813 -0.00378878 218.746 0.0113663C218.672 -0.00378878 218.599 -0.00378878 218.532 0.0113663C218.458 -0.00378878 218.385 -0.00378878 218.318 0.0113663C218.244 -0.00378878 218.171 -0.00378878 218.104 0.0113663C218.03 -0.00378878 217.957 -0.00378878 217.89 0.0113663C217.817 -0.00378878 217.743 -0.00378878 217.676 0.0113663C217.603 -0.00378878 217.529 -0.00378878 217.462 0.0113663C217.389 -0.00378878 217.315 -0.00378878 217.248 0.0113663C217.175 -0.00378878 217.101 -0.00378878 217.034 0.0113663C216.961 -0.00378878 216.887 -0.00378878 216.82 0.0113663C216.747 -0.00378878 216.673 -0.00378878 216.606 0.0113663C216.533 -0.00378878 216.459 -0.00378878 216.393 0.0113663C216.319 -0.00378878 216.245 -0.00378878 216.179 0.0113663C216.105 -0.00378878 216.031 -0.00378878 215.965 0.0113663C215.891 -0.00378878 215.818 -0.00378878 215.751 0.0113663C215.677 -0.00378878 215.604 -0.00378878 215.537 0.0113663C215.463 -0.00378878 215.39 -0.00378878 215.323 0.0113663C215.249 -0.00378878 215.176 -0.00378878 215.109 0.0113663C215.035 -0.00378878 214.962 -0.00378878 214.895 0.0113663C214.821 -0.00378878 214.748 -0.00378878 214.681 0.0113663C214.607 -0.00378878 214.534 -0.00378878 214.467 0.0113663C214.393 -0.00378878 214.32 -0.00378878 214.253 0.0113663C214.18 -0.00378878 214.106 -0.00378878 214.039 0.0113663C213.966 -0.00378878 213.892 -0.00378878 213.825 0.0113663C213.752 -0.00378878 213.678 -0.00378878 213.611 0.0113663C213.538 -0.00378878 213.464 -0.00378878 213.397 0.0113663C213.324 -0.00378878 213.25 -0.00378878 213.183 0.0113663C213.11 -0.00378878 213.036 -0.00378878 212.969 0.0113663C212.896 -0.00378878 23.6602 -0.00378878 23.5934 0.0113663C23.5198 -0.00378878 23.4463 -0.00378878 23.3794 0.0113663C23.3059 -0.00378878 23.2324 -0.00378878 23.1655 0.0113663C23.092 -0.00378878 23.0184 -0.00378878 22.9516 0.0113663C22.878 -0.00378878 22.8045 -0.00378878 22.7376 0.0113663C22.6641 -0.00378878 22.5905 -0.00378878 22.5237 0.0113663C22.4501 -0.00378878 22.3766 -0.00378878 22.3097 0.0113663C22.2362 -0.00378878 22.1627 -0.00378878 22.0958 0.0113663C22.0223 -0.00378878 21.9487 -0.00378878 21.8819 0.0113663C21.8083 -0.00378878 21.7348 -0.00378878 21.6679 0.0113663C21.5944 -0.00378878 21.5208 -0.00378878 21.454 0.0113663C21.3805 -0.00378878 21.3069 -0.00378878 21.2401 0.0113663C21.1665 -0.00378878 21.093 -0.00378878 21.0261 0.0113663C20.9526 -0.00378878 20.879 -0.00378878 20.8122 0.0113663C20.7386 -0.00378878 20.6651 -0.00378878 20.5982 0.0113663C20.5247 -0.00378878 20.4512 -0.00378878 20.3843 0.0113663C20.3108 -0.00378878 20.2372 -0.00378878 20.1704 0.0113663C20.0968 -0.00378878 20.0233 -0.00378878 19.9564 0.0113663C19.8829 -0.00378878 19.8093 -0.00378878 19.7425 0.0113663C19.6689 -0.00378878 19.5954 -0.00378878 19.5285 0.0113663C19.455 -0.00378878 19.3815 -0.00378878 19.3146 0.0113663C19.2411 -0.00378878 19.1675 -0.00378878 19.1007 0.0113663C19.0271 -0.00378878 18.9536 -0.00378878 18.8867 0.0113663C18.8132 -0.00378878 18.7397 -0.00378878 18.6728 0.0113663C18.5993 -0.00378878 18.5257 -0.00378878 18.4589 0.0113663C18.3853 -0.00378878 18.3118 -0.00378878 18.2449 0.0113663C18.1714 -0.00378878 18.0978 -0.00378878 18.031 0.0113663C17.9574 -0.00378878 17.8839 -0.00378878 17.817 0.0113663C17.7435 -0.00378878 17.67 -0.00378878 17.6031 0.0113663C17.5296 -0.00378878 17.456 -0.00378878 17.3892 0.0113663C17.3156 -0.00378878 17.2421 -0.00378878 17.1752 0.0113663C17.1017 -0.00378878 17.0281 -0.00378878 16.9613 0.0113663C16.8877 -0.00378878 16.8142 -0.00378878 16.7474 0.0113663C16.6738 -0.00378878 16.6003 -0.00378878 16.5334 0.0113663C16.4599 -0.00378878 16.3863 -0.00378878 16.3195 0.0113663C16.2459 -0.00378878 16.1724 -0.00378878 16.1055 0.0113663C16.032 -0.00378878 15.9585 -0.00378878 15.8916 0.0113663C15.8181 -0.00378878 15.7445 -0.00378878 15.6777 0.0113663C15.6041 -0.00378878 15.5306 -0.00378878 15.4637 0.0113663C15.3902 -0.00378878 15.3166 -0.00378878 15.2498 0.0113663C15.1762 -0.00378878 15.1027 -0.00378878 15.0358 0.0113663C14.9623 -0.00378878 14.8888 -0.00378878 14.8219 0.0113663C14.7484 -0.00378878 14.6748 -0.00378878 14.608 0.0113663C14.5344 -0.00378878 14.4609 -0.00378878 14.394 0.0113663C14.3205 -0.00378878 14.2469 -0.00378878 14.1801 0.0113663C14.1065 -0.00378878 14.033 -0.00378878 13.9662 0.0113663C13.8926 -0.00378878 13.8191 -0.00378878 13.7522 0.0113663C13.6787 -0.00378878 13.6051 -0.00378878 13.5383 0.0113663C13.4647 -0.00378878 13.3912 -0.00378878 13.3243 0.0113663C13.2508 -0.00378878 13.1773 -0.00378878 13.1104 0.0113663C13.0369 -0.00378878 12.9633 -0.00378878 12.8965 0.0113663C12.8229 -0.00378878 12.7494 -0.00378878 12.6825 0.0113663C12.609 -0.00378878 12.5354 -0.00378878 12.4686 0.0113663C12.395 -0.00378878 12.3215 -0.00378878 12.2547 0.0113663C12.1811 -0.00378878 12.1076 -0.00378878 12.0407 0.0113663C11.9672 -0.00378878 11.8936 -0.00378878 11.8268 0.0113663C11.7532 -0.00378878 11.6797 -0.00378878 11.6128 0.0113663C11.5393 -0.00378878 11.4658 -0.00378878 11.3989 0.0113663C11.3254 -0.00378878 11.2518 -0.00378878 11.185 0.0113663C11.1114 -0.00378878 11.0379 -0.00378878 10.971 0.0113663C10.8975 -0.00378878 10.8239 -0.00378878 10.7571 0.0113663C10.6835 -0.00378878 10.61 -0.00378878 10.5431 0.0113663C10.4696 -0.00378878 10.3961 -0.00378878 10.3292 0.0113663C10.2557 -0.00378878 10.1821 -0.00378878 10.1153 0.0113663C10.0417 -0.00378878 9.96818 -0.00378878 9.90133 0.0113663C9.82778 -0.00378878 9.75425 -0.00378878 9.68739 0.0113663C9.61385 -0.00378878 9.5403 -0.00378878 9.47345 0.0113663C9.39991 -0.00378878 9.32637 -0.00378878 9.25951 0.0113663C9.18597 -0.00378878 9.11243 -0.00378878 9.04558 0.0113663C8.97204 -0.00378878 8.89849 -0.00378878 8.83164 0.0113663C8.75809 -0.00378878 8.68456 -0.00378878 8.6177 0.0113663C8.54416 -0.00378878 8.47061 -0.00378878 8.40376 0.0113663C8.33022 -0.00378878 8.25668 -0.00378878 8.18982 0.0113663C8.11628 -0.00378878 8.04274 -0.00378878 7.97589 0.0113663C7.90235 -0.00378878 7.8288 -0.00378878 7.76194 0.0113663C7.6884 -0.00378878 7.61486 -0.00378878 7.54801 0.0113663C7.47447 -0.00378878 7.40092 -0.00378878 7.33407 0.0113663C7.26052 -0.00378878 7.18699 -0.00378878 7.12013 0.0113663C7.04659 -0.00378878 6.97305 -0.00378878 6.9062 0.0113663C6.83265 -0.00378878 6.75911 -0.00378878 6.69225 0.0113663C6.61871 -0.00378878 6.54517 -0.00378878 6.47832 0.0113663C6.40478 -0.00378878 6.33123 -0.00378878 6.26438 0.0113663C6.19084 -0.00378878 6.1173 -0.00378878 6.05044 0.0113663C5.9769 -0.00378878 5.90336 -0.00378878 5.8365 0.0113663C5.76296 -0.00378878 5.68942 -0.00378878 5.62256 0.0113663C5.54902 -0.00378878 5.47548 -0.00378878 5.40863 0.0113663C5.33509 -0.00378878 5.26154 -0.00378878 5.19469 0.0113663C5.12115 -0.00378878 5.0476 -0.00378878 4.98075 0.0113663C4.90721 -0.00378878 4.83367 -0.00378878 4.76681 0.0113663C4.69327 -0.00378878 4.61973 -0.00378878 4.55287 0.0113663C4.47933 -0.00378878 4.40579 -0.00378878 4.33894 0.0113663C4.26539 -0.00378878 4.19185 -0.00378878 4.125 0.0113663C4.05146 -0.00378878 3.97791 -0.00378878 3.91106 0.0113663C3.83752 -0.00378878 3.76397 -0.00378878 3.69712 0.0113663C3.62358 -0.00378878 3.55004 -0.00378878 3.48318 0.0113663C3.40964 -0.00378878 3.3361 -0.00378878 3.26924 0.0113663C3.1957 -0.00378878 3.12216 -0.00378878 3.05531 0.0113663C2.98176 -0.00378878 2.90822 -0.00378878 2.84137 0.0113663C2.76783 -0.00378878 2.69428 -0.00378878 2.62743 0.0113663C2.55389 -0.00378878 2.48034 -0.00378878 2.41349 0.0113663C2.33995 -0.00378878 2.26641 -0.00378878 2.19955 0.0113663C2.12601 -0.00378878 2.05247 -0.00378878 1.98561 0.0113663C1.91207 -0.00378878 1.83853 -0.00378878 1.77168 0.0113663C1.69813 -0.00378878 1.62459 -0.00378878 1.55774 0.0113663C1.4842 -0.00378878 1.41065 -0.00378878 1.3438 0.0113663C1.27026 -0.00378878 1.19672 -0.00378878 1.12986 0.0113663C0.762157 -0.0644092 0.534847 0.268996 0.160455 0.344771C0.0668573 0.723649 0.113655 1.08737 0 1.32985C0.0334278 1.69358 0.167138 1.86028 0.287479 2.04214C0.24068 2.13308 0.267422 2.34525 0.220623 2.43618C0.334278 2.54227 0.37439 2.42102 0.474674 2.4968C0.474674 2.48164 0.474674 2.46649 0.474674 2.46649C0.548215 2.51195 0.588331 2.45134 0.648501 2.48165C0.641815 2.57258 0.635129 2.6635 0.635129 2.76959C0.421191 2.51195 0.381078 3.34549 0.381078 3.36064C0.381078 3.3758 0.314223 3.28486 0.314223 3.30002C0.254052 4.10324 0.748784 4.69429 0.601701 5.58844C0.641815 5.66422 0.715358 5.66421 0.795584 5.64906C0.808956 5.96731 0.76884 6.49775 0.668557 6.75539C0.70867 6.92209 0.795584 6.96756 0.795584 7.21004C0.715358 7.64954 0.508102 7.45252 0.474674 7.9981C0.588328 8.07387 0.70867 8.1345 0.668557 8.51338C0.795583 8.63462 0.929295 8.64977 1.04964 8.61946C1.12318 8.63462 1.19003 8.63462 1.26357 8.61946C1.33712 8.63462 1.40397 8.63462 1.47751 8.61946C1.55105 8.63462 1.61791 8.63462 1.69145 8.61946C1.76499 8.63462 1.83185 8.63462 1.90539 8.61946C1.97893 8.63462 2.04578 8.63462 2.11933 8.61946C2.19287 8.63462 2.25972 8.63462 2.33327 8.61946C2.40681 8.63462 2.47366 8.63462 2.5472 8.61946C2.62074 8.63462 2.6876 8.63462 2.76114 8.61946C2.83468 8.63462 2.90154 8.63462 2.97508 8.61946C3.04862 8.63462 3.11548 8.63462 3.18902 8.61946C3.26256 8.63462 3.32942 8.63462 3.40296 8.61946C3.45644 8.63462 3.50324 8.63461 3.55672 8.63461C3.48318 8.77101 3.4297 8.93771 3.4297 9.21051C3.39627 9.39237 3.60352 9.57423 3.60352 9.81671C3.59684 10.2865 3.57678 10.0289 3.73055 10.4229C3.75729 10.4987 3.7038 10.7109 3.73055 10.7715C3.79072 10.923 3.86426 10.8018 3.94449 11.0291C4.06483 11.3928 4.09825 12.0294 4.41248 12.1658C4.23197 12.5749 4.17848 12.8326 4.11163 13.651C3.99797 13.5752 3.79072 13.9541 3.59684 13.9995C3.66369 14.3936 3.59684 14.5906 3.59684 15.0452C3.93111 15.2119 4.16511 15.4847 4.40579 16C4.4927 16 4.57293 15.9545 4.63979 15.8939C4.65984 15.9242 4.67321 15.9545 4.69327 16C4.78018 16 4.86041 15.9545 4.92727 15.8939C4.94732 15.9242 4.96069 15.9545 4.98075 16C5.06766 16 5.14789 15.9545 5.21474 15.8939C5.2348 15.9242 5.24817 15.9545 5.26823 16C5.35514 16 5.43537 15.9545 5.50222 15.8939C5.52228 15.9242 5.53565 15.9545 5.55571 16C5.64262 16 5.72285 15.9545 5.7897 15.8939C5.80976 15.9242 5.82313 15.9545 5.84319 16C5.9301 16 6.01033 15.9545 6.07718 15.8939C6.09724 15.9242 6.11061 15.9545 6.13067 16C6.21758 16 6.29781 15.9545 6.36466 15.8939C6.38472 15.9242 6.39809 15.9545 6.41815 16C6.50506 16 6.58529 15.9545 6.65214 15.8939C6.6722 15.9242 6.68557 15.9545 6.70563 16C6.79254 16 6.87277 15.9545 6.93962 15.8939C6.95968 15.9242 6.97305 15.9545 6.9931 16C7.08002 16 7.16024 15.9545 7.2271 15.8939C7.24716 15.9242 7.26053 15.9545 7.28059 16C7.3675 16 7.44773 15.9545 7.51458 15.8939C7.53464 15.9242 7.548 15.9545 7.56806 16C7.65497 16 7.7352 15.9545 7.80206 15.8939C7.82211 15.9242 7.83549 15.9545 7.85554 16C7.94246 16 8.02268 15.9545 8.08954 15.8939C8.1096 15.9242 8.12297 15.9545 8.14303 16C8.22994 16 8.31017 15.9545 8.37702 15.8939C8.39708 15.9242 8.41044 15.9545 8.4305 16C8.51741 16 8.59764 15.9545 8.6645 15.8939C8.68455 15.9242 8.69793 15.9545 8.71798 16C8.8049 16 8.88512 15.9545 8.95198 15.8939C8.97204 15.9242 8.9854 15.9545 9.00546 16C9.09237 16 9.1726 15.9545 9.23945 15.8939C9.25951 15.9242 9.27288 15.9545 9.29294 16C9.37985 16 9.46008 15.9545 9.52694 15.8939C9.54699 15.9242 9.56037 15.9545 9.58042 16C9.66734 16 9.74756 15.9545 9.81442 15.8939C9.83448 15.9242 9.84784 15.9545 9.8679 16C9.95481 16 10.035 15.9545 10.1019 15.8939C10.122 15.9242 10.1353 15.9545 10.1554 16C10.2423 16 10.3225 15.9545 10.3894 15.8939C10.4094 15.9242 10.4228 15.9545 10.4429 16C10.5298 16 10.61 15.9545 10.6769 15.8939C10.6969 15.9242 10.7103 15.9545 10.7303 16C10.8173 16 10.8975 15.9545 10.9643 15.8939C10.9844 15.9242 10.9978 15.9545 11.0178 16C11.1047 16 11.185 15.9545 11.2518 15.8939C11.2719 15.9242 11.2852 15.9545 11.3053 16C11.3922 16 11.4724 15.9545 11.5393 15.8939C11.5593 15.9242 11.5727 15.9545 11.5928 16C11.6797 16 11.7599 15.9545 11.8268 15.8939C11.8468 15.9242 11.8602 15.9545 11.8803 16C11.9672 16 12.0474 15.9545 12.1142 15.8939C12.1343 15.9242 12.1477 15.9545 12.1677 16C12.2546 16 12.3349 15.9545 12.4017 15.8939C12.4218 15.9242 12.4352 15.9545 12.4552 16C12.5421 16 12.6224 15.9545 12.6892 15.8939C12.7093 15.9242 12.7226 15.9545 12.7427 16C12.8296 16 12.9098 15.9545 12.9767 15.8939C12.9967 15.9242 13.0101 15.9545 13.0302 16C13.1171 16 13.1973 15.9545 13.2642 15.8939C13.2842 15.9242 13.2976 15.9545 13.3177 16C13.4046 16 13.4848 15.9545 13.5516 15.8939C13.5717 15.9242 13.5851 15.9545 13.6051 16C13.692 16 13.7723 15.9545 13.8391 15.8939C13.8592 15.9242 13.8726 15.9545 13.8926 16C13.9795 16 14.0598 15.9545 14.1266 15.8939C14.1467 15.9242 14.16 15.9545 14.1801 16C14.267 16 14.3472 15.9545 14.4141 15.8939C14.4341 15.9242 14.4475 15.9545 14.4676 16C14.5545 16 14.6347 15.9545 14.7016 15.8939C14.7216 15.9242 14.735 15.9545 14.755 16C14.842 16 14.9222 15.9545 14.989 15.8939C15.0091 15.9242 15.0225 15.9545 15.0425 16C15.1294 16 15.2097 15.9545 15.2765 15.8939C15.2966 15.9242 15.31 15.9545 15.33 16C15.4169 16 15.4972 15.9545 15.564 15.8939C15.5841 15.9242 15.5974 15.9545 15.6175 16C15.7044 16 15.7846 15.9545 15.8515 15.8939C15.8715 15.9242 15.8849 15.9545 15.905 16C15.9919 16 16.0721 15.9545 16.139 15.8939C16.159 15.9242 16.1724 15.9545 16.1924 16C16.2794 16 16.3596 15.9545 16.4264 15.8939C16.4465 15.9242 16.4599 15.9545 16.4799 16C16.5668 16 16.6471 15.9545 16.7139 15.8939C16.734 15.9242 16.7474 15.9545 16.7674 16C16.8543 16 16.9345 15.9545 17.0014 15.8939C17.0215 15.9242 17.0348 15.9545 17.0549 16C17.1418 16 17.222 15.9545 17.2889 15.8939C17.3089 15.9242 17.3223 15.9545 17.3424 16C17.4293 16 17.5095 15.9545 17.5764 15.8939C17.5964 15.9242 17.6098 15.9545 17.6298 16C17.7168 16 17.797 15.9545 17.8638 15.8939C17.8839 15.9242 17.8973 15.9545 17.9173 16C18.0042 16 18.0845 15.9545 18.1513 15.8939C18.1714 15.9242 18.1848 15.9545 18.2048 16C18.2917 16 18.3719 15.9545 18.4388 15.8939C18.4589 15.9242 18.4722 15.9545 18.4923 16C18.5792 16 18.6594 15.9545 18.7263 15.8939C18.7463 15.9242 18.7597 15.9545 18.7798 16C18.8667 16 18.9469 15.9545 19.0138 15.8939C19.0338 15.9242 19.0472 15.9545 19.0672 16C19.1542 16 19.2344 15.9545 19.3012 15.8939C19.3213 15.9242 19.3347 15.9545 19.3547 16C19.4416 16 19.5219 15.9545 19.5887 15.8939C19.6088 15.9242 19.6222 15.9545 19.6422 16C19.7291 16 19.8093 15.9545 19.8762 15.8939C19.8963 15.9242 19.9096 15.9545 19.9297 16C20.0166 16 20.0968 15.9545 20.1637 15.8939C20.1837 15.9242 20.1971 15.9545 20.2172 16C20.3041 16 20.3843 15.9545 20.4512 15.8939C20.4712 15.9242 20.4846 15.9545 20.5046 16C20.5916 16 20.6718 15.9545 20.7386 15.8939C20.7587 15.9242 20.7721 15.9545 20.7921 16C20.879 16 20.9593 15.9545 21.0261 15.8939C21.0462 15.9242 21.0595 15.9545 21.0796 16C21.1665 16 21.2467 15.9545 21.3136 15.8939C21.3337 15.9242 21.347 15.9545 21.3671 16C21.454 16 21.5342 15.9545 21.6011 15.8939C21.6211 15.9242 21.6345 15.9545 21.6546 16C21.7415 16 21.8217 15.9545 21.8886 15.8939C21.9086 15.9242 21.922 15.9545 21.942 16C22.0289 16 22.1092 15.9545 22.176 15.8939C22.1961 15.9242 22.2095 15.9545 22.2295 16C22.3164 16 22.3967 15.9545 22.4635 15.8939C22.4836 15.9242 22.4969 15.9545 22.517 16C22.6039 16 22.6841 15.9545 22.751 15.8939C22.7711 15.9242 22.7844 15.9545 22.8045 16C22.8914 16 22.9716 15.9545 23.0385 15.8939C23.0585 15.9242 23.0719 15.9545 23.092 16C23.1789 16 23.2591 15.9545 23.326 15.8939C23.346 15.9242 23.3594 15.9545 23.3794 16C23.4663 16 23.5466 15.9545 23.6134 15.8939C23.6335 15.9242 212.809 15.9545 212.829 16C212.916 16 212.996 15.9545 213.063 15.8939C213.083 15.9242 213.243 15.8484 213.263 15.8939C213.35 15.8939 213.284 15.9545 213.351 15.8939C213.371 15.9242 213.487 15.8939 213.404 16C213.491 16 213.571 15.9545 213.638 15.8939C213.658 15.9242 213.671 15.9545 213.692 16C213.778 16 213.859 15.9545 213.925 15.8939C213.946 15.9242 213.959 15.9545 213.979 16C214.066 16 214.146 15.9545 214.213 15.8939C214.233 15.9242 214.246 15.9545 214.266 16C214.353 16 214.434 15.9545 214.5 15.8939C214.521 15.9242 214.534 15.9545 214.554 16C214.641 16 214.721 15.9545 214.788 15.8939C214.808 15.9242 214.821 15.9545 214.841 16C214.928 16 215.009 15.9545 215.075 15.8939C215.095 15.9242 215.109 15.9545 215.129 16C215.216 16 215.296 15.9545 215.363 15.8939C215.383 15.9242 215.396 15.9545 215.416 16C215.503 16 215.584 15.9545 215.65 15.8939C215.67 15.9242 215.684 15.9545 215.704 16C215.791 16 215.871 15.9545 215.938 15.8939C215.958 15.9242 215.971 15.9545 215.991 16C216.078 16 216.158 15.9545 216.225 15.8939C216.245 15.9242 216.259 15.9545 216.279 16C216.366 16 216.446 15.9545 216.513 15.8939C216.533 15.9242 216.546 15.9545 216.566 16C216.653 16 216.733 15.9545 216.8 15.8939C216.82 15.9242 216.834 15.9545 216.854 16C216.941 16 217.021 15.9545 217.088 15.8939C217.108 15.9242 217.121 15.9545 217.141 16C217.228 16 217.308 15.9545 217.375 15.8939C217.395 15.9242 217.409 15.9545 217.429 16C217.516 16 217.596 15.9545 217.663 15.8939C217.683 15.9242 217.696 15.9545 217.716 16C217.803 16 217.883 15.9545 217.95 15.8939C217.97 15.9242 217.984 15.9545 218.004 16C218.091 16 218.171 15.9545 218.238 15.8939C218.258 15.9242 218.271 15.9545 218.291 16C218.378 16 218.458 15.9545 218.525 15.8939C218.545 15.9242 218.559 15.9545 218.579 16C218.666 16 218.746 15.9545 218.813 15.8939C218.833 15.9242 218.846 15.9545 218.866 16C218.953 16 219.033 15.9545 219.1 15.8939C219.12 15.9242 219.134 15.9545 219.154 16C219.241 16 219.321 15.9545 219.388 15.8939C219.408 15.9242 219.421 15.9545 219.441 16C219.528 16 219.608 15.9545 219.675 15.8939C219.695 15.9242 219.709 15.9545 219.729 16C219.815 16 219.896 15.9545 219.963 15.8939C219.983 15.9242 219.996 15.9545 220.016 16C220.103 16 220.183 15.9545 220.25 15.8939C220.27 15.9242 220.283 15.9545 220.304 16C220.39 16 220.471 15.9545 220.538 15.8939C220.558 15.9242 220.571 15.9545 220.591 16C220.678 16 220.758 15.9545 220.825 15.8939C220.845 15.9242 220.858 15.9545 220.878 16C220.965 16 221.046 15.9545 221.113 15.8939C221.133 15.9242 221.146 15.9545 221.166 16C221.253 16 221.333 15.9545 221.4 15.8939C221.42 15.9242 221.433 15.9545 221.453 16C221.54 16 221.621 15.9545 221.687 15.8939C221.708 15.9242 221.721 15.9545 221.741 16C221.828 16 221.908 15.9545 221.975 15.8939C221.995 15.9242 222.008 15.9545 222.028 16C222.115 16 222.196 15.9545 222.262 15.8939C222.282 15.9242 222.296 15.9545 222.316 16C222.403 16 222.483 15.9545 222.55 15.8939C222.57 15.9242 222.583 15.9545 222.603 16C222.69 16 222.771 15.9545 222.837 15.8939C222.857 15.9242 222.871 15.9545 222.891 16C222.978 16 223.058 15.9545 223.125 15.8939C223.145 15.9242 223.158 15.9545 223.178 16C223.265 16 223.345 15.9545 223.412 15.8939C223.432 15.9242 223.446 15.9545 223.466 16C223.553 16 223.633 15.9545 223.7 15.8939C223.72 15.9242 223.733 15.9545 223.753 16C223.84 16 223.92 15.9545 223.987 15.8939C224.007 15.9242 224.021 15.9545 224.041 16C224.128 16 224.208 15.9545 224.275 15.8939C224.295 15.9242 224.308 15.9545 224.328 16C224.415 16 224.495 15.9545 224.562 15.8939C224.582 15.9242 224.596 15.9545 224.616 16C224.703 16 224.783 15.9545 224.85 15.8939C224.87 15.9242 224.883 15.9545 224.903 16C224.99 16 225.07 15.9545 225.137 15.8939C225.157 15.9242 225.171 15.9545 225.191 16C225.278 16 225.358 15.9545 225.425 15.8939C225.445 15.9242 225.458 15.9545 225.478 16C225.565 16 225.645 15.9545 225.712 15.8939C225.732 15.9242 225.746 15.9545 225.766 16C225.853 16 225.933 15.9545 226 15.8939C226.02 15.9242 226.033 15.9545 226.053 16C226.14 16 226.22 15.9545 226.287 15.8939C226.307 15.9242 226.321 15.9545 226.341 16C226.428 16 226.508 15.9545 226.575 15.8939C226.595 15.9242 226.608 15.9545 226.628 16C226.715 16 226.795 15.9545 226.862 15.8939C226.882 15.9242 226.896 15.9545 226.916 16C227.002 16 227.083 15.9545 227.15 15.8939C227.17 15.9242 227.183 15.9545 227.203 16C227.29 16 227.37 15.9545 227.437 15.8939C227.457 15.9242 227.47 15.9545 227.491 16C227.577 16 227.658 15.9545 227.725 15.8939C227.745 15.9242 227.758 15.9545 227.778 16C227.865 16 227.945 15.9545 228.012 15.8939C228.032 15.9242 228.045 15.9545 228.065 16C228.152 16 228.233 15.9545 228.299 15.8939C228.32 15.9242 228.333 15.9545 228.353 16C228.44 16 228.52 15.9545 228.587 15.8939C228.607 15.9242 228.62 15.9545 228.64 16C228.727 16 228.808 15.9545 228.874 15.8939C228.894 15.9242 228.908 15.9545 228.928 16C229.015 16 229.095 15.9545 229.162 15.8939C229.182 15.9242 229.195 15.9545 229.215 16C229.302 16 229.383 15.9545 229.449 15.8939C229.469 15.9242 229.483 15.9545 229.503 16C229.59 16 229.67 15.9545 229.737 15.8939C229.757 15.9242 229.77 15.9545 229.79 16C229.877 16 229.958 15.9545 230.024 15.8939C230.044 15.9242 230.058 15.9545 230.078 16C230.165 16 230.245 15.9545 230.312 15.8939C230.332 15.9242 230.345 15.9545 230.365 16C230.452 16 230.532 15.9545 230.599 15.8939C230.619 15.9242 230.633 15.9545 230.653 16C230.74 16 230.82 15.9545 230.887 15.8939C230.907 15.9242 230.92 15.9545 230.94 16C231.027 16 231.107 15.9545 231.174 15.8939C231.194 15.9242 231.208 15.9545 231.228 16C231.315 16 231.395 15.9545 231.462 15.8939C231.482 15.9242 231.495 15.9545 231.515 16C231.602 16 231.682 15.9545 231.749 15.8939C231.769 15.9242 231.783 15.9545 231.803 16C231.89 16 231.97 15.9545 232.037 15.8939C232.057 15.9242 232.07 15.9545 232.09 16C232.177 16 232.257 15.9545 232.324 15.8939C232.344 15.9242 232.358 15.9545 232.378 16C232.465 16 232.545 15.9545 232.612 15.8939C232.632 15.9242 232.645 15.9545 232.665 16C232.752 16 232.832 15.9545 232.899 15.8939C232.919 15.9242 232.933 15.9545 232.953 16C233.04 16 233.12 15.9545 233.187 15.8939C233.207 15.9242 233.22 15.9545 233.24 16C233.327 16 233.407 15.9545 233.474 15.8939C233.494 15.9242 233.508 15.9545 233.528 16C233.615 16 233.695 15.9545 233.762 15.8939C233.782 15.9242 233.795 15.9545 233.815 16C233.902 16 233.982 15.9545 234.049 15.8939C234.069 15.9242 234.083 15.9545 234.103 16C234.189 16 234.27 15.9545 234.337 15.8939C234.357 15.9242 234.37 15.9545 234.39 16C234.477 16 234.557 15.9545 234.624 15.8939C234.644 15.9242 234.657 15.9545 234.678 16C234.764 16 234.845 15.9545 234.912 15.8939C234.932 15.9242 234.945 15.9545 234.965 16C235.052 16 235.132 15.9545 235.199 15.8939C235.219 15.9242 235.232 15.9545 235.252 16C235.339 16 235.42 15.9545 235.486 15.8939C235.507 15.9242 235.52 15.9545 235.54 16C235.627 16 235.707 15.9545 235.774 15.8939C235.794 15.9242 235.807 15.9545 235.827 16C235.914 16 235.995 15.9545 236.061 15.8939C236.081 15.9242 236.095 15.9545 236.115 16C236.483 16 236.663 15.318 237.011 15.0452C237.024 14.727 237.104 14.3178 236.924 14.0905C237.131 14.3329 237.245 13.9541 237.352 13.7419C237.887 13.1357 238.06 12.2718 237.733 11.3625Z" fill="#F59E0B"/>
</svg>
