<svg width="123" height="14" viewBox="0 0 123 14" fill="none" xmlns="http://www.w3.org/2000/svg">
<path fill-rule="evenodd" clip-rule="evenodd" d="M122.862 9.94222C122.914 9.53113 122.976 9.08027 122.907 8.64267C123.052 7.91333 123.014 7.40942 122.886 6.73312C122.834 6.7066 122.786 6.71987 122.741 6.74639L122.738 6.73312C122.686 6.7066 122.637 6.71987 122.592 6.74639L122.589 6.73312C122.537 6.7066 122.489 6.71987 122.444 6.74639L122.44 6.73312C122.43 6.73312 122.42 6.73312 122.409 6.71986C122.44 6.49443 122.468 6.24248 122.506 6.04357C122.516 6.14966 122.534 6.22921 122.561 6.269C122.582 6.10987 122.613 5.99052 122.644 5.87117C122.648 6.07009 122.668 6.20269 122.71 6.269C122.779 5.75183 122.959 5.56618 122.931 4.90314C122.907 4.37272 122.689 3.78925 122.492 3.96164C122.444 3.92185 122.392 3.92185 122.344 3.96164C122.302 3.92185 122.257 3.92185 122.216 3.94837C122.243 3.16599 122.192 2.31731 122.071 1.78688C122.164 1.78688 122.071 1.5084 122.136 1.4421C122.04 1.22993 122.123 0.739285 122.053 0.474071C121.977 0.407767 121.946 0.195596 121.905 0.00994554C121.86 -0.00331518 121.822 -0.00331518 121.784 0.00994554C121.746 -0.00331518 121.708 -0.00331518 121.673 0.00994554C121.635 -0.00331518 121.597 -0.00331518 121.563 0.00994554C121.525 -0.00331518 121.487 -0.00331518 121.452 0.00994554C121.414 -0.00331518 121.376 -0.00331518 121.342 0.00994554C121.304 -0.00331518 121.266 -0.00331518 121.231 0.00994554C121.193 -0.00331518 121.155 -0.00331518 121.121 0.00994554C121.083 -0.00331518 121.045 -0.00331518 121.01 0.00994554C120.972 -0.00331518 120.934 -0.00331518 120.899 0.00994554C120.861 -0.00331518 120.823 -0.00331518 120.789 0.00994554C120.751 -0.00331518 120.713 -0.00331518 120.678 0.00994554C120.64 -0.00331518 120.602 -0.00331518 120.568 0.00994554C120.53 -0.00331518 120.492 -0.00331518 120.457 0.00994554C120.419 -0.00331518 120.381 -0.00331518 120.347 0.00994554C120.309 -0.00331518 120.271 -0.00331518 120.236 0.00994554C120.198 -0.00331518 120.16 -0.00331518 120.125 0.00994554C120.087 -0.00331518 120.049 -0.00331518 120.015 0.00994554C119.977 -0.00331518 119.939 -0.00331518 119.904 0.00994554C119.866 -0.00331518 119.828 -0.00331518 119.794 0.00994554C119.756 -0.00331518 119.718 -0.00331518 119.683 0.00994554C119.645 -0.00331518 119.607 -0.00331518 119.573 0.00994554C119.535 -0.00331518 119.497 -0.00331518 119.462 0.00994554C119.424 -0.00331518 119.386 -0.00331518 119.351 0.00994554C119.313 -0.00331518 119.275 -0.00331518 119.241 0.00994554C119.203 -0.00331518 119.165 -0.00331518 119.13 0.00994554C119.092 -0.00331518 119.054 -0.00331518 119.02 0.00994554C118.982 -0.00331518 118.944 -0.00331518 118.909 0.00994554C118.871 -0.00331518 118.833 -0.00331518 118.799 0.00994554C118.761 -0.00331518 118.723 -0.00331518 118.688 0.00994554C118.65 -0.00331518 118.612 -0.00331518 118.578 0.00994554C118.54 -0.00331518 118.502 -0.00331518 118.467 0.00994554C118.429 -0.00331518 118.391 -0.00331518 118.356 0.00994554C118.318 -0.00331518 118.28 -0.00331518 118.246 0.00994554C118.208 -0.00331518 118.17 -0.00331518 118.135 0.00994554C118.097 -0.00331518 118.059 -0.00331518 118.025 0.00994554C117.987 -0.00331518 117.949 -0.00331518 117.914 0.00994554C117.876 -0.00331518 117.838 -0.00331518 117.804 0.00994554C117.766 -0.00331518 117.728 -0.00331518 117.693 0.00994554C117.655 -0.00331518 117.617 -0.00331518 117.582 0.00994554C117.544 -0.00331518 117.506 -0.00331518 117.472 0.00994554C117.434 -0.00331518 117.396 -0.00331518 117.361 0.00994554C117.323 -0.00331518 117.285 -0.00331518 117.251 0.00994554C117.213 -0.00331518 117.175 -0.00331518 117.14 0.00994554C117.102 -0.00331518 117.064 -0.00331518 117.03 0.00994554C116.992 -0.00331518 116.954 -0.00331518 116.919 0.00994554C116.881 -0.00331518 116.843 -0.00331518 116.809 0.00994554C116.77 -0.00331518 116.732 -0.00331518 116.698 0.00994554C116.66 -0.00331518 116.622 -0.00331518 116.587 0.00994554C116.549 -0.00331518 116.511 -0.00331518 116.477 0.00994554C116.439 -0.00331518 116.401 -0.00331518 116.366 0.00994554C116.328 -0.00331518 116.29 -0.00331518 116.256 0.00994554C116.218 -0.00331518 116.18 -0.00331518 116.145 0.00994554C116.107 -0.00331518 116.069 -0.00331518 116.035 0.00994554C115.997 -0.00331518 115.959 -0.00331518 115.924 0.00994554C115.886 -0.00331518 115.848 -0.00331518 115.813 0.00994554C115.775 -0.00331518 115.737 -0.00331518 115.703 0.00994554C115.665 -0.00331518 115.627 -0.00331518 115.592 0.00994554C115.554 -0.00331518 115.516 -0.00331518 115.482 0.00994554C115.444 -0.00331518 115.406 -0.00331518 115.371 0.00994554C115.333 -0.00331518 115.295 -0.00331518 115.261 0.00994554C115.223 -0.00331518 115.185 -0.00331518 115.15 0.00994554C115.112 -0.00331518 115.074 -0.00331518 115.039 0.00994554C115.001 -0.00331518 114.963 -0.00331518 114.929 0.00994554C114.891 -0.00331518 114.853 -0.00331518 114.818 0.00994554C114.78 -0.00331518 114.742 -0.00331518 114.708 0.00994554C114.67 -0.00331518 114.632 -0.00331518 114.597 0.00994554C114.559 -0.00331518 114.521 -0.00331518 114.487 0.00994554C114.449 -0.00331518 114.411 -0.00331518 114.376 0.00994554C114.338 -0.00331518 114.3 -0.00331518 114.266 0.00994554C114.227 -0.00331518 114.189 -0.00331518 114.155 0.00994554C114.117 -0.00331518 114.079 -0.00331518 114.044 0.00994554C114.006 -0.00331518 113.968 -0.00331518 113.934 0.00994554C113.896 -0.00331518 113.858 -0.00331518 113.823 0.00994554C113.785 -0.00331518 113.747 -0.00331518 113.713 0.00994554C113.675 -0.00331518 113.637 -0.00331518 113.602 0.00994554C113.564 -0.00331518 113.526 -0.00331518 113.492 0.00994554C113.454 -0.00331518 113.416 -0.00331518 113.381 0.00994554C113.343 -0.00331518 113.305 -0.00331518 113.27 0.00994554C113.232 -0.00331518 113.194 -0.00331518 113.16 0.00994554C113.122 -0.00331518 113.084 -0.00331518 113.049 0.00994554C113.011 -0.00331518 112.973 -0.00331518 112.939 0.00994554C112.901 -0.00331518 112.863 -0.00331518 112.828 0.00994554C112.79 -0.00331518 112.752 -0.00331518 112.718 0.00994554C112.68 -0.00331518 112.642 -0.00331518 112.607 0.00994554C112.569 -0.00331518 112.531 -0.00331518 112.496 0.00994554C112.458 -0.00331518 112.42 -0.00331518 112.386 0.00994554C112.348 -0.00331518 112.31 -0.00331518 112.275 0.00994554C112.237 -0.00331518 112.199 -0.00331518 112.165 0.00994554C112.127 -0.00331518 112.089 -0.00331518 112.054 0.00994554C112.016 -0.00331518 111.978 -0.00331518 111.944 0.00994554C111.906 -0.00331518 111.868 -0.00331518 111.833 0.00994554C111.795 -0.00331518 111.757 -0.00331518 111.723 0.00994554C111.685 -0.00331518 111.647 -0.00331518 111.612 0.00994554C111.574 -0.00331518 111.536 -0.00331518 111.501 0.00994554C111.463 -0.00331518 111.425 -0.00331518 111.391 0.00994554C111.353 -0.00331518 111.315 -0.00331518 111.28 0.00994554C111.242 -0.00331518 111.204 -0.00331518 111.17 0.00994554C111.132 -0.00331518 111.094 -0.00331518 111.059 0.00994554C111.021 -0.00331518 110.983 -0.00331518 110.949 0.00994554C110.911 -0.00331518 110.873 -0.00331518 110.838 0.00994554C110.8 -0.00331518 110.762 -0.00331518 110.727 0.00994554C110.689 -0.00331518 110.651 -0.00331518 110.617 0.00994554C110.579 -0.00331518 110.541 -0.00331518 110.506 0.00994554C110.468 -0.00331518 110.43 -0.00331518 110.396 0.00994554C110.358 -0.00331518 110.32 -0.00331518 110.285 0.00994554C110.247 -0.00331518 110.209 -0.00331518 110.175 0.00994554C110.137 -0.00331518 110.099 -0.00331518 110.064 0.00994554C110.026 -0.00331518 12.2278 -0.00331518 12.1932 0.00994554C12.1552 -0.00331518 12.1172 -0.00331518 12.0826 0.00994554C12.0446 -0.00331518 12.0066 -0.00331518 11.9721 0.00994554C11.9341 -0.00331518 11.8961 -0.00331518 11.8615 0.00994554C11.8235 -0.00331518 11.7855 -0.00331518 11.751 0.00994554C11.7129 -0.00331518 11.6749 -0.00331518 11.6404 0.00994554C11.6024 -0.00331518 11.5644 -0.00331518 11.5298 0.00994554C11.4918 -0.00331518 11.4538 -0.00331518 11.4193 0.00994554C11.3813 -0.00331518 11.3432 -0.00331518 11.3087 0.00994554C11.2707 -0.00331518 11.2327 -0.00331518 11.1981 0.00994554C11.1601 -0.00331518 11.1221 -0.00331518 11.0876 0.00994554C11.0496 -0.00331518 11.0116 -0.00331518 10.977 0.00994554C10.939 -0.00331518 10.901 -0.00331518 10.8664 0.00994554C10.8284 -0.00331518 10.7904 -0.00331518 10.7559 0.00994554C10.7179 -0.00331518 10.6799 -0.00331518 10.6453 0.00994554C10.6073 -0.00331518 10.5693 -0.00331518 10.5347 0.00994554C10.4967 -0.00331518 10.4587 -0.00331518 10.4242 0.00994554C10.3862 -0.00331518 10.3482 -0.00331518 10.3136 0.00994554C10.2756 -0.00331518 10.2376 -0.00331518 10.2031 0.00994554C10.165 -0.00331518 10.127 -0.00331518 10.0925 0.00994554C10.0545 -0.00331518 10.0165 -0.00331518 9.98192 0.00994554C9.94391 -0.00331518 9.90591 -0.00331518 9.87135 0.00994554C9.83335 -0.00331518 9.79534 -0.00331518 9.76079 0.00994554C9.72278 -0.00331518 9.68478 -0.00331518 9.65023 0.00994554C9.61222 -0.00331518 9.57421 -0.00331518 9.53966 0.00994554C9.50165 -0.00331518 9.46365 -0.00331518 9.4291 0.00994554C9.39109 -0.00331518 9.35308 -0.00331518 9.31853 0.00994554C9.28052 -0.00331518 9.24252 -0.00331518 9.20797 0.00994554C9.16996 -0.00331518 9.13196 -0.00331518 9.0974 0.00994554C9.0594 -0.00331518 9.02139 -0.00331518 8.98684 0.00994554C8.94883 -0.00331518 8.91082 -0.00331518 8.87627 0.00994554C8.83827 -0.00331518 8.80026 -0.00331518 8.76571 0.00994554C8.7277 -0.00331518 8.6897 -0.00331518 8.65514 0.00994554C8.61714 -0.00331518 8.57913 -0.00331518 8.54458 0.00994554C8.50657 -0.00331518 8.46856 -0.00331518 8.43401 0.00994554C8.39601 -0.00331518 8.358 -0.00331518 8.32345 0.00994554C8.28544 -0.00331518 8.24743 -0.00331518 8.21288 0.00994554C8.17488 -0.00331518 8.13687 -0.00331518 8.10232 0.00994554C8.06431 -0.00331518 8.02631 -0.00331518 7.99176 0.00994554C7.95375 -0.00331518 7.91574 -0.00331518 7.88119 0.00994554C7.84318 -0.00331518 7.80518 -0.00331518 7.77063 0.00994554C7.73262 -0.00331518 7.69461 -0.00331518 7.66006 0.00994554C7.62205 -0.00331518 7.58405 -0.00331518 7.5495 0.00994554C7.51149 -0.00331518 7.47349 -0.00331518 7.43893 0.00994554C7.40093 -0.00331518 7.36292 -0.00331518 7.32837 0.00994554C7.29036 -0.00331518 7.25235 -0.00331518 7.2178 0.00994554C7.1798 -0.00331518 7.14179 -0.00331518 7.10724 0.00994554C7.06923 -0.00331518 7.03122 -0.00331518 6.99667 0.00994554C6.95867 -0.00331518 6.92066 -0.00331518 6.88611 0.00994554C6.8481 -0.00331518 6.81009 -0.00331518 6.77554 0.00994554C6.73754 -0.00331518 6.69953 -0.00331518 6.66498 0.00994554C6.62697 -0.00331518 6.58896 -0.00331518 6.55441 0.00994554C6.51641 -0.00331518 6.4784 -0.00331518 6.44385 0.00994554C6.40584 -0.00331518 6.36784 -0.00331518 6.33329 0.00994554C6.29528 -0.00331518 6.25727 -0.00331518 6.22272 0.00994554C6.18471 -0.00331518 6.14671 -0.00331518 6.11216 0.00994554C6.07415 -0.00331518 6.03614 -0.00331518 6.00159 0.00994554C5.96358 -0.00331518 5.92558 -0.00331518 5.89103 0.00994554C5.85302 -0.00331518 5.81501 -0.00331518 5.78046 0.00994554C5.74246 -0.00331518 5.70445 -0.00331518 5.6699 0.00994554C5.63189 -0.00331518 5.59388 -0.00331518 5.55933 0.00994554C5.52133 -0.00331518 5.48332 -0.00331518 5.44877 0.00994554C5.41076 -0.00331518 5.37275 -0.00331518 5.3382 0.00994554C5.3002 -0.00331518 5.26219 -0.00331518 5.22764 0.00994554C5.18963 -0.00331518 5.15162 -0.00331518 5.11707 0.00994554C5.07907 -0.00331518 5.04106 -0.00331518 5.00651 0.00994554C4.9685 -0.00331518 4.93049 -0.00331518 4.89594 0.00994554C4.85794 -0.00331518 4.81993 -0.00331518 4.78538 0.00994554C4.74737 -0.00331518 4.70937 -0.00331518 4.67482 0.00994554C4.63681 -0.00331518 4.5988 -0.00331518 4.56425 0.00994554C4.52624 -0.00331518 4.48824 -0.00331518 4.45369 0.00994554C4.41568 -0.00331518 4.37767 -0.00331518 4.34312 0.00994554C4.30511 -0.00331518 4.26711 -0.00331518 4.23256 0.00994554C4.19455 -0.00331518 4.15654 -0.00331518 4.12199 0.00994554C4.08399 -0.00331518 4.04598 -0.00331518 4.01142 0.00994554C3.97342 -0.00331518 3.93541 -0.00331518 3.90086 0.00994554C3.86286 -0.00331518 3.82485 -0.00331518 3.79029 0.00994554C3.75229 -0.00331518 3.71428 -0.00331518 3.67973 0.00994554C3.64173 -0.00331518 3.60372 -0.00331518 3.56917 0.00994554C3.53116 -0.00331518 3.49315 -0.00331518 3.4586 0.00994554C3.42059 -0.00331518 3.38259 -0.00331518 3.34804 0.00994554C3.31003 -0.00331518 3.27202 -0.00331518 3.23747 0.00994554C3.19947 -0.00331518 3.16146 -0.00331518 3.12691 0.00994554C3.0889 -0.00331518 3.05089 -0.00331518 3.01634 0.00994554C2.97834 -0.00331518 2.94033 -0.00331518 2.90578 0.00994554C2.86777 -0.00331518 2.82977 -0.00331518 2.79521 0.00994554C2.75721 -0.00331518 2.7192 -0.00331518 2.68465 0.00994554C2.64664 -0.00331518 2.60864 -0.00331518 2.57408 0.00994554C2.53608 -0.00331518 2.49807 -0.00331518 2.46352 0.00994554C2.42551 -0.00331518 2.38751 -0.00331518 2.35295 0.00994554C2.31495 -0.00331518 2.27694 -0.00331518 2.24239 0.00994554C2.20438 -0.00331518 2.16638 -0.00331518 2.13183 0.00994554C2.09382 -0.00331518 2.05581 -0.00331518 2.02126 0.00994554C1.98325 -0.00331518 1.94525 -0.00331518 1.9107 0.00994554C1.87269 -0.00331518 1.83468 -0.00331518 1.80013 0.00994554C1.76212 -0.00331518 1.72412 -0.00331518 1.68957 0.00994554C1.65156 -0.00331518 1.61355 -0.00331518 1.579 0.00994554C1.541 -0.00331518 1.50299 -0.00331518 1.46844 0.00994554C1.43043 -0.00331518 1.39242 -0.00331518 1.35787 0.00994554C1.31987 -0.00331518 1.28186 -0.00331518 1.24731 0.00994554C1.2093 -0.00331518 1.1713 -0.00331518 1.13674 0.00994554C1.09874 -0.00331518 1.06073 -0.00331518 1.02618 0.00994554C0.988172 -0.00331518 0.950165 -0.00331518 0.915614 0.00994554C0.877607 -0.00331518 0.8396 -0.00331518 0.805049 0.00994554C0.767042 -0.00331518 0.729035 -0.00331518 0.694484 0.00994554C0.656477 -0.00331518 0.618472 -0.00331518 0.583921 0.00994554C0.393888 -0.056358 0.276413 0.235371 0.0829244 0.301675C0.0345523 0.633193 0.0587375 0.95145 0 1.16362C0.0172757 1.48188 0.0863783 1.62775 0.148571 1.78688C0.124385 1.86644 0.138205 2.0521 0.114019 2.13166C0.172757 2.22449 0.193487 2.11839 0.245315 2.1847C0.245315 2.17144 0.245315 2.15818 0.245315 2.15818C0.283321 2.19796 0.304053 2.14492 0.33515 2.17144C0.331695 2.251 0.328239 2.33056 0.328239 2.42339C0.217674 2.19796 0.196944 2.9273 0.196944 2.94056C0.196944 2.95382 0.162392 2.87425 0.162392 2.88751C0.131296 3.59033 0.386976 4.1075 0.310963 4.88989C0.331694 4.95619 0.369702 4.95619 0.411163 4.94293C0.418074 5.2214 0.397342 5.68553 0.345515 5.91096C0.366246 6.05683 0.411163 6.09661 0.411163 6.30879C0.369702 6.69335 0.26259 6.52095 0.245315 6.99834C0.304052 7.06464 0.366246 7.11769 0.345515 7.4492C0.411163 7.55529 0.480266 7.56855 0.542459 7.54203C0.580465 7.55529 0.615017 7.55529 0.653024 7.54203C0.69103 7.55529 0.72558 7.55529 0.763587 7.54203C0.801593 7.55529 0.836145 7.55529 0.874152 7.54203C0.912158 7.55529 0.94671 7.55529 0.984717 7.54203C1.02272 7.55529 1.05728 7.55529 1.09528 7.54203C1.13329 7.55529 1.16784 7.55529 1.20585 7.54203C1.24385 7.55529 1.2784 7.55529 1.31641 7.54203C1.35442 7.55529 1.38897 7.55529 1.42698 7.54203C1.46498 7.55529 1.49953 7.55529 1.53754 7.54203C1.57555 7.55529 1.6101 7.55529 1.64811 7.54203C1.68611 7.55529 1.72066 7.55529 1.75867 7.54203C1.78631 7.55529 1.8105 7.55529 1.83814 7.55529C1.80013 7.67463 1.77249 7.8205 1.77249 8.05919C1.75521 8.21832 1.86233 8.37745 1.86233 8.58962C1.85887 9.0007 1.8485 8.77527 1.92797 9.12005C1.94179 9.18635 1.91415 9.37201 1.92797 9.42505C1.95907 9.55766 1.99707 9.45157 2.03854 9.65048C2.10073 9.96874 2.11801 10.5257 2.2804 10.645C2.18711 11.0031 2.15947 11.2285 2.12492 11.9446C2.06618 11.8783 1.95907 12.2098 1.85887 12.2496C1.89342 12.5944 1.85887 12.7667 1.85887 13.1646C2.03163 13.3104 2.15256 13.5491 2.27694 14C2.32186 14 2.36332 13.9602 2.39787 13.9072C2.40824 13.9337 2.41515 13.9602 2.42551 14C2.47043 14 2.51189 13.9602 2.54644 13.9072C2.55681 13.9337 2.56372 13.9602 2.57408 14C2.619 14 2.66046 13.9602 2.69501 13.9072C2.70538 13.9337 2.71229 13.9602 2.72266 14C2.76757 14 2.80903 13.9602 2.84359 13.9072C2.85395 13.9337 2.86086 13.9602 2.87123 14C2.91614 14 2.95761 13.9602 2.99216 13.9072C3.00252 13.9337 3.00943 13.9602 3.0198 14C3.06472 14 3.10618 13.9602 3.14073 13.9072C3.15109 13.9337 3.158 13.9602 3.16837 14C3.21329 14 3.25475 13.9602 3.2893 13.9072C3.29967 13.9337 3.30658 13.9602 3.31694 14C3.36186 14 3.40332 13.9602 3.43787 13.9072C3.44824 13.9337 3.45515 13.9602 3.46551 14C3.51043 14 3.55189 13.9602 3.58644 13.9072C3.59681 13.9337 3.60372 13.9602 3.61408 14C3.659 14 3.70046 13.9602 3.73501 13.9072C3.74538 13.9337 3.75229 13.9602 3.76266 14C3.80757 14 3.84903 13.9602 3.88359 13.9072C3.89395 13.9337 3.90086 13.9602 3.91122 14C3.95614 14 3.9976 13.9602 4.03216 13.9072C4.04252 13.9337 4.04943 13.9602 4.0598 14C4.10471 14 4.14618 13.9602 4.18073 13.9072C4.19109 13.9337 4.19801 13.9602 4.20837 14C4.25329 14 4.29475 13.9602 4.3293 13.9072C4.33967 13.9337 4.34657 13.9602 4.35694 14C4.40186 14 4.44332 13.9602 4.47787 13.9072C4.48824 13.9337 4.49515 13.9602 4.50551 14C4.55043 14 4.59189 13.9602 4.62644 13.9072C4.63681 13.9337 4.64372 13.9602 4.65408 14C4.699 14 4.74046 13.9602 4.77501 13.9072C4.78538 13.9337 4.79229 13.9602 4.80265 14C4.84757 14 4.88903 13.9602 4.92358 13.9072C4.93395 13.9337 4.94086 13.9602 4.95123 14C4.99614 14 5.03761 13.9602 5.07216 13.9072C5.08252 13.9337 5.08943 13.9602 5.0998 14C5.14471 14 5.18617 13.9602 5.22073 13.9072C5.23109 13.9337 5.238 13.9602 5.24837 14C5.29329 14 5.33475 13.9602 5.3693 13.9072C5.37966 13.9337 5.38657 13.9602 5.39694 14C5.44186 14 5.48332 13.9602 5.51787 13.9072C5.52823 13.9337 5.53515 13.9602 5.54551 14C5.59043 14 5.63189 13.9602 5.66644 13.9072C5.67681 13.9337 5.68372 13.9602 5.69408 14C5.739 14 5.78046 13.9602 5.81501 13.9072C5.82538 13.9337 5.83229 13.9602 5.84265 14C5.88757 14 5.92903 13.9602 5.96358 13.9072C5.97395 13.9337 5.98086 13.9602 5.99123 14C6.03614 14 6.0776 13.9602 6.11216 13.9072C6.12252 13.9337 6.12943 13.9602 6.13979 14C6.18471 14 6.22617 13.9602 6.26072 13.9072C6.27109 13.9337 6.278 13.9602 6.28837 14C6.33328 14 6.37475 13.9602 6.4093 13.9072C6.41966 13.9337 6.42658 13.9602 6.43694 14C6.48186 14 6.52332 13.9602 6.55787 13.9072C6.56824 13.9337 6.57514 13.9602 6.58551 14C6.63043 14 6.67189 13.9602 6.70644 13.9072C6.71681 13.9337 6.72372 13.9602 6.73408 14C6.779 14 6.82046 13.9602 6.85501 13.9072C6.86538 13.9337 6.87229 13.9602 6.88265 14C6.92757 14 6.96903 13.9602 7.00358 13.9072C7.01395 13.9337 7.02086 13.9602 7.03122 14C7.07614 14 7.1176 13.9602 7.15215 13.9072C7.16252 13.9337 7.16943 13.9602 7.1798 14C7.22471 14 7.26618 13.9602 7.30073 13.9072C7.31109 13.9337 7.318 13.9602 7.32837 14C7.37328 14 7.41474 13.9602 7.4493 13.9072C7.45966 13.9337 7.46657 13.9602 7.47694 14C7.52186 14 7.56332 13.9602 7.59787 13.9072C7.60823 13.9337 7.61514 13.9602 7.62551 14C7.67042 14 7.71189 13.9602 7.74644 13.9072C7.7568 13.9337 7.76372 13.9602 7.77408 14C7.819 14 7.86046 13.9602 7.89501 13.9072C7.90538 13.9337 7.91229 13.9602 7.92265 14C7.96757 14 8.00903 13.9602 8.04358 13.9072C8.05395 13.9337 8.06086 13.9602 8.07122 14C8.11614 14 8.1576 13.9602 8.19215 13.9072C8.20252 13.9337 8.20943 13.9602 8.2198 14C8.26471 14 8.30617 13.9602 8.34073 13.9072C8.35109 13.9337 8.358 13.9602 8.36836 14C8.41328 14 8.45474 13.9602 8.48929 13.9072C8.49966 13.9337 8.50657 13.9602 8.51694 14C8.56185 14 8.60332 13.9602 8.63787 13.9072C8.64823 13.9337 8.65514 13.9602 8.66551 14C8.71043 14 8.75189 13.9602 8.78644 13.9072C8.79681 13.9337 8.80371 13.9602 8.81408 14C8.859 14 8.90046 13.9602 8.93501 13.9072C8.94537 13.9337 8.95229 13.9602 8.96265 14C9.00757 14 9.04903 13.9602 9.08358 13.9072C9.09395 13.9337 9.10086 13.9602 9.11122 14C9.15614 14 9.1976 13.9602 9.23215 13.9072C9.24252 13.9337 9.24943 13.9602 9.25979 14C9.30471 14 9.34617 13.9602 9.38072 13.9072C9.39109 13.9337 9.398 13.9602 9.40837 14C9.45328 14 9.49475 13.9602 9.5293 13.9072C9.53966 13.9337 9.54657 13.9602 9.55694 14C9.60185 14 9.64331 13.9602 9.67787 13.9072C9.68823 13.9337 9.69514 13.9602 9.70551 14C9.75043 14 9.79189 13.9602 9.82644 13.9072C9.8368 13.9337 9.84371 13.9602 9.85408 14C9.89899 14 9.94046 13.9602 9.97501 13.9072C9.98537 13.9337 9.99229 13.9602 10.0027 14C10.0476 14 10.089 13.9602 10.1236 13.9072C10.1339 13.9337 10.1409 13.9602 10.1512 14C10.1961 14 10.2376 13.9602 10.2722 13.9072C10.2825 13.9337 10.2894 13.9602 10.2998 14C10.3447 14 10.3862 13.9602 10.4207 13.9072C10.4311 13.9337 10.438 13.9602 10.4484 14C10.4933 14 10.5347 13.9602 10.5693 13.9072C10.5797 13.9337 10.5866 13.9602 10.5969 14C10.6419 14 10.6833 13.9602 10.7179 13.9072C10.7282 13.9337 10.7351 13.9602 10.7455 14C10.7904 14 10.8319 13.9602 10.8664 13.9072C10.8768 13.9337 10.8837 13.9602 10.8941 14C10.939 14 10.9805 13.9602 11.015 13.9072C11.0254 13.9337 11.0323 13.9602 11.0426 14C11.0876 14 11.129 13.9602 11.1636 13.9072C11.1739 13.9337 11.1809 13.9602 11.1912 14C11.2361 14 11.2776 13.9602 11.3122 13.9072C11.3225 13.9337 11.3294 13.9602 11.3398 14C11.3847 14 11.4262 13.9602 11.4607 13.9072C11.4711 13.9337 11.478 13.9602 11.4884 14C11.5333 14 11.5747 13.9602 11.6093 13.9072C11.6197 13.9337 11.6266 13.9602 11.6369 14C11.6819 14 11.7233 13.9602 11.7579 13.9072C11.7682 13.9337 11.7751 13.9602 11.7855 14C11.8304 14 11.8719 13.9602 11.9064 13.9072C11.9168 13.9337 11.9237 13.9602 11.9341 14C11.979 14 12.0205 13.9602 12.055 13.9072C12.0654 13.9337 12.0723 13.9602 12.0826 14C12.1276 14 12.169 13.9602 12.2036 13.9072C12.2139 13.9337 109.981 13.9602 109.991 14C110.036 14 110.078 13.9602 110.112 13.9072C110.123 13.9337 110.206 13.8674 110.216 13.9072C110.261 13.9072 110.226 13.9602 110.261 13.9072C110.271 13.9337 110.331 13.9072 110.289 14C110.334 14 110.375 13.9602 110.41 13.9072C110.42 13.9337 110.427 13.9602 110.437 14C110.482 14 110.524 13.9602 110.558 13.9072C110.568 13.9337 110.575 13.9602 110.586 14C110.631 14 110.672 13.9602 110.707 13.9072C110.717 13.9337 110.724 13.9602 110.734 14C110.779 14 110.821 13.9602 110.855 13.9072C110.866 13.9337 110.873 13.9602 110.883 14C110.928 14 110.969 13.9602 111.004 13.9072C111.014 13.9337 111.021 13.9602 111.031 14C111.076 14 111.118 13.9602 111.152 13.9072C111.163 13.9337 111.17 13.9602 111.18 14C111.225 14 111.266 13.9602 111.301 13.9072C111.311 13.9337 111.318 13.9602 111.329 14C111.374 14 111.415 13.9602 111.45 13.9072C111.46 13.9337 111.467 13.9602 111.477 14C111.522 14 111.564 13.9602 111.598 13.9072C111.609 13.9337 111.615 13.9602 111.626 14C111.671 14 111.712 13.9602 111.747 13.9072C111.757 13.9337 111.764 13.9602 111.774 14C111.819 14 111.861 13.9602 111.895 13.9072C111.906 13.9337 111.913 13.9602 111.923 14C111.968 14 112.009 13.9602 112.044 13.9072C112.054 13.9337 112.061 13.9602 112.072 14C112.116 14 112.158 13.9602 112.192 13.9072C112.203 13.9337 112.21 13.9602 112.22 14C112.265 14 112.306 13.9602 112.341 13.9072C112.351 13.9337 112.358 13.9602 112.369 14C112.414 14 112.455 13.9602 112.49 13.9072C112.5 13.9337 112.507 13.9602 112.517 14C112.562 14 112.604 13.9602 112.638 13.9072C112.649 13.9337 112.655 13.9602 112.666 14C112.711 14 112.752 13.9602 112.787 13.9072C112.797 13.9337 112.804 13.9602 112.814 14C112.859 14 112.901 13.9602 112.935 13.9072C112.946 13.9337 112.953 13.9602 112.963 14C113.008 14 113.049 13.9602 113.084 13.9072C113.094 13.9337 113.101 13.9602 113.111 14C113.156 14 113.198 13.9602 113.232 13.9072C113.243 13.9337 113.25 13.9602 113.26 14C113.305 14 113.346 13.9602 113.381 13.9072C113.391 13.9337 113.398 13.9602 113.409 14C113.454 14 113.495 13.9602 113.53 13.9072C113.54 13.9337 113.547 13.9602 113.557 14C113.602 14 113.644 13.9602 113.678 13.9072C113.688 13.9337 113.695 13.9602 113.706 14C113.751 14 113.792 13.9602 113.827 13.9072C113.837 13.9337 113.844 13.9602 113.854 14C113.899 14 113.941 13.9602 113.975 13.9072C113.986 13.9337 113.993 13.9602 114.003 14C114.048 14 114.089 13.9602 114.124 13.9072C114.134 13.9337 114.141 13.9602 114.151 14C114.196 14 114.238 13.9602 114.272 13.9072C114.283 13.9337 114.29 13.9602 114.3 14C114.345 14 114.386 13.9602 114.421 13.9072C114.431 13.9337 114.438 13.9602 114.449 14C114.494 14 114.535 13.9602 114.57 13.9072C114.58 13.9337 114.587 13.9602 114.597 14C114.642 14 114.684 13.9602 114.718 13.9072C114.729 13.9337 114.735 13.9602 114.746 14C114.791 14 114.832 13.9602 114.867 13.9072C114.877 13.9337 114.884 13.9602 114.894 14C114.939 14 114.981 13.9602 115.015 13.9072C115.026 13.9337 115.033 13.9602 115.043 14C115.088 14 115.129 13.9602 115.164 13.9072C115.174 13.9337 115.181 13.9602 115.191 14C115.236 14 115.278 13.9602 115.312 13.9072C115.323 13.9337 115.33 13.9602 115.34 14C115.385 14 115.426 13.9602 115.461 13.9072C115.471 13.9337 115.478 13.9602 115.489 14C115.534 14 115.575 13.9602 115.61 13.9072C115.62 13.9337 115.627 13.9602 115.637 14C115.682 14 115.724 13.9602 115.758 13.9072C115.769 13.9337 115.775 13.9602 115.786 14C115.831 14 115.872 13.9602 115.907 13.9072C115.917 13.9337 115.924 13.9602 115.934 14C115.979 14 116.021 13.9602 116.055 13.9072C116.066 13.9337 116.073 13.9602 116.083 14C116.128 14 116.169 13.9602 116.204 13.9072C116.214 13.9337 116.221 13.9602 116.231 14C116.276 14 116.318 13.9602 116.352 13.9072C116.363 13.9337 116.37 13.9602 116.38 14C116.425 14 116.466 13.9602 116.501 13.9072C116.511 13.9337 116.518 13.9602 116.529 14C116.574 14 116.615 13.9602 116.65 13.9072C116.66 13.9337 116.667 13.9602 116.677 14C116.722 14 116.764 13.9602 116.798 13.9072C116.808 13.9337 116.815 13.9602 116.826 14C116.871 14 116.912 13.9602 116.947 13.9072C116.957 13.9337 116.964 13.9602 116.974 14C117.019 14 117.061 13.9602 117.095 13.9072C117.106 13.9337 117.113 13.9602 117.123 14C117.168 14 117.209 13.9602 117.244 13.9072C117.254 13.9337 117.261 13.9602 117.271 14C117.316 14 117.358 13.9602 117.392 13.9072C117.403 13.9337 117.41 13.9602 117.42 14C117.465 14 117.506 13.9602 117.541 13.9072C117.551 13.9337 117.558 13.9602 117.569 14C117.614 14 117.655 13.9602 117.69 13.9072C117.7 13.9337 117.707 13.9602 117.717 14C117.762 14 117.804 13.9602 117.838 13.9072C117.849 13.9337 117.855 13.9602 117.866 14C117.911 14 117.952 13.9602 117.987 13.9072C117.997 13.9337 118.004 13.9602 118.014 14C118.059 14 118.101 13.9602 118.135 13.9072C118.146 13.9337 118.153 13.9602 118.163 14C118.208 14 118.249 13.9602 118.284 13.9072C118.294 13.9337 118.301 13.9602 118.311 14C118.356 14 118.398 13.9602 118.432 13.9072C118.443 13.9337 118.45 13.9602 118.46 14C118.505 14 118.546 13.9602 118.581 13.9072C118.591 13.9337 118.598 13.9602 118.609 14C118.654 14 118.695 13.9602 118.73 13.9072C118.74 13.9337 118.747 13.9602 118.757 14C118.802 14 118.844 13.9602 118.878 13.9072C118.888 13.9337 118.895 13.9602 118.906 14C118.951 14 118.992 13.9602 119.027 13.9072C119.037 13.9337 119.044 13.9602 119.054 14C119.099 14 119.141 13.9602 119.175 13.9072C119.186 13.9337 119.193 13.9602 119.203 14C119.248 14 119.289 13.9602 119.324 13.9072C119.334 13.9337 119.341 13.9602 119.351 14C119.396 14 119.438 13.9602 119.472 13.9072C119.483 13.9337 119.49 13.9602 119.5 14C119.545 14 119.586 13.9602 119.621 13.9072C119.631 13.9337 119.638 13.9602 119.649 14C119.694 14 119.735 13.9602 119.77 13.9072C119.78 13.9337 119.787 13.9602 119.797 14C119.842 14 119.884 13.9602 119.918 13.9072C119.929 13.9337 119.935 13.9602 119.946 14C119.991 14 120.032 13.9602 120.067 13.9072C120.077 13.9337 120.084 13.9602 120.094 14C120.139 14 120.181 13.9602 120.215 13.9072C120.226 13.9337 120.233 13.9602 120.243 14C120.288 14 120.329 13.9602 120.364 13.9072C120.374 13.9337 120.381 13.9602 120.391 14C120.436 14 120.478 13.9602 120.512 13.9072C120.523 13.9337 120.53 13.9602 120.54 14C120.585 14 120.626 13.9602 120.661 13.9072C120.671 13.9337 120.678 13.9602 120.689 14C120.734 14 120.775 13.9602 120.81 13.9072C120.82 13.9337 120.827 13.9602 120.837 14C120.882 14 120.924 13.9602 120.958 13.9072C120.968 13.9337 120.975 13.9602 120.986 14C121.031 14 121.072 13.9602 121.107 13.9072C121.117 13.9337 121.124 13.9602 121.134 14C121.179 14 121.221 13.9602 121.255 13.9072C121.266 13.9337 121.273 13.9602 121.283 14C121.328 14 121.369 13.9602 121.404 13.9072C121.414 13.9337 121.421 13.9602 121.431 14C121.476 14 121.518 13.9602 121.552 13.9072C121.563 13.9337 121.57 13.9602 121.58 14C121.625 14 121.666 13.9602 121.701 13.9072C121.711 13.9337 121.718 13.9602 121.729 14C121.774 14 121.815 13.9602 121.85 13.9072C121.86 13.9337 121.867 13.9602 121.877 14C121.922 14 121.964 13.9602 121.998 13.9072C122.008 13.9337 122.015 13.9602 122.026 14C122.216 14 122.309 13.4033 122.489 13.1646C122.496 12.8861 122.537 12.5281 122.444 12.3291C122.551 12.5413 122.61 12.2098 122.665 12.0241C122.941 11.4937 123.031 10.7379 122.862 9.94222Z" fill="#F59E0B"/>
</svg>
