<svg width="16" height="16" viewBox="0 0 16 16" fill="none" xmlns="http://www.w3.org/2000/svg">
<path d="M7.80213 0.410984C7.88577 0.233376 8.11423 0.233376 8.19787 0.410985L10.282 4.83684C10.3926 5.07174 10.6099 5.2409 10.8686 5.28031L15.5288 5.99003C15.6984 6.01586 15.8011 6.26185 15.6497 6.41657L12.2776 9.86162C12.0961 10.047 12.0161 10.3103 12.0579 10.5655L12.8539 15.43C12.8716 15.5381 12.8273 15.6267 12.7605 15.6776C12.6949 15.7275 12.6137 15.7384 12.5353 15.6952L8.36714 13.3985C8.13777 13.2722 7.86223 13.2722 7.63285 13.3985L3.46468 15.6952C3.38634 15.7384 3.30512 15.7275 3.2395 15.6776C3.17269 15.6267 3.12837 15.5381 3.14608 15.43L3.94213 10.5655C3.98389 10.3103 3.90395 10.047 3.72245 9.86162L0.350322 6.41657C0.19888 6.26186 0.301621 6.01586 0.471244 5.99002L5.13141 5.28031C5.39012 5.2409 5.60743 5.07174 5.71804 4.83684L7.80213 0.410984Z" fill="#FBBF24" stroke="white" stroke-width="0.555556"/>
</svg>
